<?xml version="1.0" encoding="utf-8"?>
<!-- Generator: Adobe Illustrator 27.5.0, SVG Export Plug-In . SVG Version: 6.00 Build 0)  -->
<svg version="1.1" id="Layer_1" xmlns="http://www.w3.org/2000/svg" xmlns:xlink="http://www.w3.org/1999/xlink" x="0px" y="0px"
	 viewBox="0 0 450 450" style="enable-background:new 0 0 450 450;" xml:space="preserve">
<g id="Layer_2">

		<linearGradient id="SVGID_1_" gradientUnits="userSpaceOnUse" x1="-369.0127" y1="10.0764" x2="196.6138" y2="10.0764" gradientTransform="matrix(0.707 -0.707 -0.707 -0.707 246.5497 124.6637)">
		<stop  offset="0" style="stop-color:#FF001B"/>
		<stop  offset="0.16" style="stop-color:#FF001B"/>
		<stop  offset="0.327" style="stop-color:#63000A"/>
		<stop  offset="0.65" style="stop-color:#67000B"/>
		<stop  offset="0.831" style="stop-color:#FF001B"/>
		<stop  offset="1" style="stop-color:#FF001B"/>
	</linearGradient>
	<path style="fill:url(#SVGID_1_);" d="M0,399.898v-85.865L314.032,0h85.865L0,399.898z"/>
</g>
<g style="opacity:0.3;">
	<path d="M285.938,70.229c-5.922-5.786-14.336-13.486-22.122-20.012l-81.251,81.251c-6.025,11.563-10.139,20.571-10.465,21.289
		l-2.868,6.309l33.742,33.742l5.863-1.955c0.061-0.02,0.165-0.055,0.311-0.104l97.611-97.611
		C301.29,86.191,293.96,78.068,285.938,70.229z"/>
	<path d="M193.227,206.466l1.954-5.863l-33.743-33.743l-6.309,2.868c-0.718,0.326-9.727,4.44-21.289,10.465L52.32,261.713
		c6.113,7.565,13.499,15.861,20.088,22.335c6.104,5.997,15.099,14.048,23.135,20.307l97.582-97.582
		C193.173,206.63,193.207,206.526,193.227,206.466z"/>
</g>
<g>
	<g>

			<linearGradient id="SVGID_00000127030794021413670570000006247340079620879236_" gradientUnits="userSpaceOnUse" x1="195.1973" y1="143.1182" x2="285.2121" y2="143.1182" gradientTransform="matrix(-0.213 0.977 -0.977 -0.213 369.2393 -99.8144)">
			<stop  offset="0" style="stop-color:#580009"/>
			<stop  offset="0.135" style="stop-color:#A40011"/>
			<stop  offset="0.263" style="stop-color:#D80016"/>
			<stop  offset="0.562" style="stop-color:#AA0012"/>
			<stop  offset="0.991" style="stop-color:#5B0009"/>
		</linearGradient>
		<path style="fill:url(#SVGID_00000127030794021413670570000006247340079620879236_);" d="M170.518,56.634
			c-2.199,0.147-4.927,1.923-7.051,11.657c-1.416,6.49-1.549,16.873-0.328,32.025c1.952,24.221,12.407,49.538,12.407,49.538
			l15.508-0.357l17.696-81.125C208.75,68.373,173.763,57.341,170.518,56.634z"/>

			<linearGradient id="SVGID_00000007411757153752183130000005365889335964100747_" gradientUnits="userSpaceOnUse" x1="239.5925" y1="123.227" x2="240.4707" y2="159.4205" gradientTransform="matrix(-0.213 0.977 -0.977 -0.213 369.2393 -99.8144)">
			<!--<stop  offset="0" style="stop-color:#000000"/>
			<stop  offset="0.2653" style="stop-color:#525252"/>
			<stop  offset="0.5274" style="stop-color:#9C9C9C"/>
			<stop  offset="0.7427" style="stop-color:#D2D2D2"/>
			<stop  offset="0.9032" style="stop-color:#F3F3F3"/>
			<stop  offset="0.991" style="stop-color:#FFFFFF"/>-->
		</linearGradient>
		<path style="fill:url(#SVGID_00000007411757153752183130000005365889335964100747_);" d="M170.518,56.634
			c-2.199,0.147-4.927,1.923-7.051,11.657c-1.416,6.49-1.549,16.873-0.328,32.025c1.952,24.221,12.407,49.538,12.407,49.538
			l15.508-0.357l17.696-81.125C208.75,68.373,173.763,57.341,170.518,56.634z"/>
		<path style="fill:#FFA7A9;" d="M191.453,149.983l-16.233,0.373c-0.302-0.735-0.163-0.392-0.419-1.032
			c-0.232-0.585-0.497-1.268-0.79-2.043c-0.836-2.212-1.73-4.714-2.646-7.455c-2.616-7.832-4.884-16.014-6.51-24.143
			c-1.064-5.324-1.816-10.454-2.209-15.328c-1.215-15.084-1.101-25.57,0.338-32.169c1.858-8.518,4.27-11.83,7.5-12.045
			c10.889,3.001,21.659,6.508,32.44,9.884c1.569,0.492,3.025,0.949,4.331,1.36l2.072,0.652L191.453,149.983z M175.877,149.354
			l14.776-0.34l17.519-80.307c-4.033-1.268-2.186-0.687-5.542-1.742c-4.482-1.405-8.967-2.807-13.159-4.108
			c-4.759-1.474-9.516-2.955-14.289-4.383c-1.004-0.302-2.406-0.718-3.45-1.011c-1.757-0.493-1.835-0.337-3.54,0.717
			c-2.571,2.771-3.418,6.634-4.242,10.217c-1.413,6.479-1.526,16.884-0.318,31.879c0.389,4.833,1.135,9.925,2.193,15.214
			c1.616,8.085,3.872,16.228,6.477,24.023c0.912,2.729,1.802,5.218,2.634,7.419c0.291,0.769,0.553,1.447,0.784,2.027
			L175.877,149.354z"/>
	</g>
	<g>

			<linearGradient id="SVGID_00000169518002764858247990000004745459229177429937_" gradientUnits="userSpaceOnUse" x1="51.2786" y1="50.7205" x2="141.2926" y2="50.7205" gradientTransform="matrix(0.977 -0.213 -0.213 -0.977 23.4859 245.9401)">
			<stop  offset="0" style="stop-color:#580009"/>
			<stop  offset="0.135" style="stop-color:#A40011"/>
			<stop  offset="0.263" style="stop-color:#D80016"/>
			<stop  offset="0.562" style="stop-color:#AA0012"/>
			<stop  offset="0.991" style="stop-color:#5B0009"/>
		</linearGradient>
		<path style="fill:url(#SVGID_00000169518002764858247990000004745459229177429937_);" d="M59.006,168.146
			c0.146-2.199,1.922-4.927,11.657-7.051c6.489-1.416,16.873-1.55,32.024-0.328c24.222,1.952,49.538,12.406,49.538,12.406
			l-0.355,15.509l-81.125,17.695C70.745,206.378,59.713,171.391,59.006,168.146z"/>

			<linearGradient id="SVGID_00000152237945340288359730000017298093814558497450_" gradientUnits="userSpaceOnUse" x1="95.2725" y1="30.9873" x2="96.8522" y2="70.0816" gradientTransform="matrix(0.977 -0.213 -0.213 -0.977 23.4859 245.9401)">
			<!--<stop  offset="0" style="stop-color:#000000"/>
			<stop  offset="0.4425" style="stop-color:#787878"/>
			<stop  offset="0.822" style="stop-color:#D9D9D9"/>
			<stop  offset="0.991" style="stop-color:#FFFFFF"/>-->
		</linearGradient>
		<path style="fill:url(#SVGID_00000152237945340288359730000017298093814558497450_);" d="M59.006,168.146
			c0.146-2.199,1.922-4.927,11.657-7.051c6.489-1.416,16.873-1.55,32.024-0.328c24.222,1.952,49.538,12.406,49.538,12.406
			l-0.355,15.509l-81.125,17.695C70.745,206.378,59.713,171.391,59.006,168.146z"/>
		<path style="fill:#FFA7A9;" d="M152.354,189.081L70.41,206.956c-0.675-2.133-1.344-4.268-2.015-6.402
			c-1.405-4.482-2.808-8.969-4.109-13.161c-1.48-4.777-2.967-9.553-4.399-14.344c-0.408-1.362-1.267-3.503-1.374-4.936
			c0.215-3.232,3.527-5.642,12.045-7.5c6.598-1.439,17.084-1.553,32.169-0.338c4.874,0.393,10.004,1.144,15.328,2.209
			c8.129,1.626,16.312,3.893,24.143,6.509c2.741,0.916,5.242,1.811,7.454,2.646c0.775,0.293,1.458,0.558,2.044,0.79
			c0.642,0.256,0.298,0.116,1.032,0.419L152.354,189.081z M71.08,205.8l80.306-17.518l0.339-14.777l-0.393-0.157
			c-0.581-0.231-1.26-0.493-2.029-0.784c-2.2-0.832-4.69-1.723-7.418-2.634c-7.795-2.604-15.939-4.86-24.024-6.478
			c-5.288-1.058-10.38-1.804-15.213-2.193c-14.995-1.208-25.399-1.095-31.88,0.318c-3.636,0.805-7.373,1.727-10.216,4.243
			c-1.114,1.538-1.173,1.918-0.717,3.54c0.294,1.045,0.71,2.444,1.011,3.45c0.843,2.819,1.707,5.634,2.574,8.446
			c1.954,6.341,3.936,12.671,5.918,19.001c0.492,1.568,0.95,3.024,1.361,4.33L71.08,205.8z"/>
	</g>

		<linearGradient id="SVGID_00000179613128803114061870000005117628103158333843_" gradientUnits="userSpaceOnUse" x1="-592.2035" y1="575.4485" x2="-444.2393" y2="555.5003" gradientTransform="matrix(-0.285 -0.959 0.959 -0.285 -503.8235 -65.4053)">
		<stop  offset="0" style="stop-color:#D50016"/>
		<stop  offset="0.342" style="stop-color:#FF001B"/>
		<stop  offset="0.536" style="stop-color:#C70015"/>
		<stop  offset="0.729" style="stop-color:#80000D"/>
	</linearGradient>
	<path style="fill:url(#SVGID_00000179613128803114061870000005117628103158333843_);" d="M226.311,311.314
		c0,0,9.857-72.316-31.829-121.394c-9.438,2.705-42.439,10.019-42.9,10.536c45.463,49.626,7.669,120.635,7.669,120.635l37.256-24.92
		L226.311,311.314z"/>
	<path style="opacity:0.4;fill:#2A2A2A;enable-background:new    ;" d="M110.111,268.196c3.124,1.125,9.052-0.482,12.751-5.998
		c3.349-4.993,7.215-18.454,15.507-33.247c9.878-17.623,55.072-44.667,55.072-44.667l15.38,26.733c0,0-5.724,5.9-15.132,10.838
		c0.88,12.197,1.483,25.867,0.673,37.856c-1.63,24.124-11.256,31.247-18.631,32.121c-3.298,0.392-15.158-5.46-31.248-11.256
		C135.109,277.2,113.405,270.985,110.111,268.196z"/>
	<g>

			<linearGradient id="SVGID_00000060011164588827593810000001943849164610368701_" gradientUnits="userSpaceOnUse" x1="-221.1823" y1="36.3987" x2="-100.0347" y2="36.3987" gradientTransform="matrix(0.707 -0.707 -0.707 -0.707 246.5497 124.6637)">
			<stop  offset="0" style="stop-color:#580009"/>
			<stop  offset="0.135" style="stop-color:#A40011"/>
			<stop  offset="0.263" style="stop-color:#E60018"/>
			<stop  offset="0.5" style="stop-color:#BD0014"/>
		</linearGradient>
		<path style="fill:url(#SVGID_00000060011164588827593810000001943849164610368701_);" d="M49.145,240.01
			c-1.387-2.514-3.059-9.178,6.118-18.354c6.118-6.118,18.848-15.543,36.315-24.865c27.923-14.901,61.571-24.079,61.571-24.079
			l12.236,24.473l-76.474,76.474C88.912,273.659,52.204,243.069,49.145,240.01z"/>
		<path style="fill:#FFA7A9;" d="M88.942,274.326c-4.163-3.473-2.12-1.767-6.13-5.116c-4.361-3.645-8.771-7.338-12.954-10.851
			c-5.39-4.538-10.79-9.064-16.136-13.653c-1.091-0.937-4.14-3.303-5.009-4.458c-2.577-4.67-1.39-11.35,6.201-18.94
			c7.028-7.029,20.511-16.455,36.431-24.951c8.21-4.381,17.39-8.529,27.223-12.416c8.229-3.254,16.45-6.145,24.275-8.64
			c2.74-0.872,5.234-1.635,7.434-2.279c0.771-0.227,1.45-0.421,2.031-0.585c0.661-0.187,0.293-0.084,1.103-0.306l12.575,25.151
			L88.942,274.326z M88.881,272.991l75.904-75.904l-11.896-23.789l-0.313,0.088c-0.578,0.163-1.255,0.357-2.021,0.583
			c-2.194,0.643-4.68,1.401-7.412,2.273c-7.805,2.488-16.006,5.372-24.212,8.617c-9.801,3.874-18.948,8.007-27.121,12.369
			c-15.841,8.454-29.245,17.826-36.198,24.777c-3.772,3.943-8.105,9.27-6.978,15.165c0.117,0.609,0.504,1.881,0.915,2.544
			c0.38,0.612,2.391,2.148,2.811,2.514c1.423,1.234,3.142,2.705,4.555,3.909c4.057,3.455,8.134,6.888,12.212,10.318
			c0.451,0.379,0.906,0.761,1.367,1.148c4.182,3.513,8.591,7.205,12.951,10.849c1.526,1.276,2.938,2.454,4.199,3.507L88.881,272.991
			z"/>
	</g>

		<linearGradient id="SVGID_00000042724825824479597480000015961842622873856131_" gradientUnits="userSpaceOnUse" x1="-377.8955" y1="88.3965" x2="-284.2457" y2="88.3965" gradientTransform="matrix(0.339 -0.941 -0.941 -0.339 352.4513 -41.0699)">
		<stop  offset="0" style="stop-color:#93000F"/>
		<stop  offset="0.111" style="stop-color:#D50016"/>
		<stop  offset="0.226" style="stop-color:#FF3B46"/>
		<stop  offset="0.361" style="stop-color:#E10017"/>
		<stop  offset="0.551" style="stop-color:#990010"/>
		<stop  offset="0.782" style="stop-color:#67000B"/>
	</linearGradient>
	<path style="fill:url(#SVGID_00000042724825824479597480000015961842622873856131_);" d="M104.162,270.522
		c3.124,1.125,9.051-0.482,12.751-5.998c3.348-4.993,7.214-18.454,15.506-33.247c9.878-17.623,28.257-39.244,28.257-39.244
		l24.998,9.004c0,0,4.368,36.876,2.739,61c-1.63,24.125-11.256,31.248-18.631,32.122c-3.299,0.39-15.157-5.46-31.248-11.256
		C129.16,279.526,107.456,273.31,104.162,270.522z"/>

		<linearGradient id="SVGID_00000124849471079243671910000008557917784295342216_" gradientUnits="userSpaceOnUse" x1="48.0119" y1="27.7511" x2="144.2861" y2="27.7511" gradientTransform="matrix(0.977 -0.213 -0.213 -0.977 23.4859 245.9401)">
		<stop  offset="0" style="stop-color:#93000F"/>
		<stop  offset="0.111" style="stop-color:#D50016"/>
		<stop  offset="0.226" style="stop-color:#FF7780"/>
		<stop  offset="0.361" style="stop-color:#FF001B"/>
		<stop  offset="0.551" style="stop-color:#AD0012"/>
		<stop  offset="0.865" style="stop-color:#70000C"/>
	</linearGradient>
	<path style="fill:url(#SVGID_00000124849471079243671910000008557917784295342216_);" d="M58.623,168.006
		c6.207,9.827,22.401,11.793,39.34,10.951c20.178-1.002,57.565-4.671,57.565-4.671l5.663,25.96c0,0-28.911,23.304-50.21,34.749
		c-21.3,11.445-30.831,13.989-35.49,8.207c-2.086-2.586-6.895-15.737-10.539-32.446C62.828,201.021,58.012,172.279,58.623,168.006z"
		/>

		<linearGradient id="SVGID_00000088845009150472212740000003701382828869486258_" gradientUnits="userSpaceOnUse" x1="-175.2049" y1="35.7273" x2="-83.9101" y2="5.8124" gradientTransform="matrix(0.747 -0.664 -0.664 -0.747 227.1169 142.6612)">
		<stop  offset="0.139" style="stop-color:#000000"/>
		<stop  offset="0.389" style="stop-color:#464646"/>
		<stop  offset="0.835" style="stop-color:#000000"/>
	</linearGradient>
	<path style="opacity:0.308;fill:url(#SVGID_00000088845009150472212740000003701382828869486258_);enable-background:new    ;" d="
		M160.657,198.321c-19.164,15.053-38.888,29.779-60.995,40.252c-3.392,1.606-7.36,3.348-10.99,4.456
		c-3.253,0.992-7.199,1.919-10.535,0.619c-3.357-1.309-4.52-4.081-5.752-7.16c-0.472-1.179-0.962-2.377-1.387-3.575
		c-1.457-4.112-2.701-8.8-3.856-13.005c5.226,4.485,10.612,2.128,14.282-0.329c4.329-2.899,10.134-8.076,16.843-13.252
		c6.6-5.09,14.934-9.354,20.635-11.735c7.994-3.337,22.27-9.861,37.748-16.992L160.657,198.321z"/>
	<path style="fill:#80000D;" d="M158.84,182.719l-16.98,9.67l20.406-3.352l-21.365,18.593l26.011-13.796l-27.945,31.979
		l31.523-28.247l-6,17.899l10.342-13.863l-11.238,40.996l16.72-40.539C180.412,201.959,158.84,182.719,158.84,182.719z"/>
	<path style="fill:#FFA7A9;" d="M153.793,174.95l-1.14,0.109c-2.326,0.223-4.923,0.467-7.723,0.726
		c-8.001,0.738-16.036,1.442-23.584,2.052c-0.642,0.053-1.279,0.104-1.91,0.153c-8.548,0.68-15.821,1.181-21.45,1.46
		c-9.194,0.297-18.76,0.504-27.598-2.5c-4.128-1.404-8.821-4.144-11.414-7.773c-0.73-1.573-0.279-0.902-0.151-2.306l0.599,1.011
		c5.404,8.557,18.494,11.576,38.516,10.582c5.616-0.278,12.882-0.779,21.421-1.459c0.63-0.05,1.268-0.101,1.909-0.152
		c7.543-0.609,15.575-1.314,23.572-2.051c2.799-0.259,5.394-0.504,7.72-0.726l0.951-0.092l0.074,0.275L153.793,174.95z"/>

		<linearGradient id="SVGID_00000143577292375883342200000009308292993865265846_" gradientUnits="userSpaceOnUse" x1="-236.4639" y1="-7.0173" x2="-148.1108" y2="20.8137" gradientTransform="matrix(0.636 -0.771 -0.771 -0.636 275.4854 92.7069)">
		<stop  offset="0.126" style="stop-color:#000000"/>
		<stop  offset="0.498" style="stop-color:#464646"/>
		<stop  offset="0.844" style="stop-color:#000000"/>
	</linearGradient>
	<path style="opacity:0.311;fill:url(#SVGID_00000143577292375883342200000009308292993865265846_);enable-background:new    ;" d="
		M157.714,280.442c-3.033,2.78-6.773,5.15-10.991,5.54c-6.207-2.367-3.473-1.352-8.189-3.078
		c-9.374-3.376-31.078-9.592-34.373-12.381c3.125,1.126,9.052-0.481,12.751-5.998c3.349-4.993,7.215-18.454,15.507-33.247
		c5.805-10.209,12.77-19.704,19.954-28.974c1.943-2.509,3.935-4.98,5.945-7.435c0.759-0.925,1.507-1.984,2.357-2.836l24.518,8.832
		l-0.018,0.084c-4.097,18.686-8.982,37.23-15.447,55.248c-2.033,5.666-3.661,9.546-6.029,14.806
		c-0.282,0.626-1.586,3.405-2.133,4.305c-0.582,0.956-1.226,1.873-1.838,2.809L157.714,280.442z"/>

		<linearGradient id="SVGID_00000173866330937458328960000017030067241496164520_" gradientUnits="userSpaceOnUse" x1="-225.8811" y1="6.4834" x2="-100.0347" y2="6.4834" gradientTransform="matrix(0.707 -0.707 -0.707 -0.707 246.5497 124.6637)">
		<stop  offset="0" style="stop-color:#93000F"/>
		<stop  offset="0.111" style="stop-color:#D50016"/>
		<stop  offset="0.226" style="stop-color:#FF7780"/>
		<stop  offset="0.361" style="stop-color:#FF001B"/>
		<stop  offset="0.573" style="stop-color:#C70015"/>
		<stop  offset="0.857" style="stop-color:#6C000B"/>
	</linearGradient>
	<path style="fill:url(#SVGID_00000173866330937458328960000017030067241496164520_);" d="M49.146,240.01
		c3.06,3.059,10.936,4.45,18.354,0c6.714-4.029,18.733-17.752,36.707-30.59c21.413-15.295,55.061-30.59,55.061-30.59l24.473,24.473
		c0,0-15.296,45.884-30.591,73.413c-15.294,27.531-30.589,30.591-39.766,27.531c-4.104-1.368-20.053-13.66-33.968-27.332
		C65.5,263.243,51.483,245.124,49.146,240.01z"/>
	<path style="fill:#FFA7A9;" d="M156.655,180.592c-3.011,1.425-1.337,0.628-5.017,2.399c-6.017,2.922-12.308,6.12-18.565,9.489
		c-5.162,2.78-10.081,5.559-14.662,8.309c-5.19,3.114-9.859,6.135-13.916,9.033c-9.405,6.553-17.857,14.316-26.317,22.016
		c-5.495,5.01-8.103,7.203-10.423,8.596c-4.563,2.608-11.927,4.382-16.769,1.455c-1.382-0.745-2.166-1.552-2.288-1.674l0.799-0.554
		c3.401,3.402,11.261,3.819,17.751-0.074c2.24-1.345,4.826-3.52,10.266-8.479c5.797-5.201,11.469-10.563,17.566-15.42
		c4.217-3.36,5.112-3.964,8.842-6.669c4.08-2.915,8.771-5.95,13.981-9.076c4.596-2.758,9.527-5.545,14.703-8.332
		c6.271-3.376,12.573-6.58,18.602-9.508c3.645-1.754,2.011-0.977,4.896-2.341L156.655,180.592z"/>

		<linearGradient id="SVGID_00000010291104492398560500000016159303181158957491_" gradientUnits="userSpaceOnUse" x1="-513.4681" y1="607.6392" x2="-513.4681" y2="525.2605" gradientTransform="matrix(-0.285 -0.959 0.959 -0.285 -503.8235 -65.4053)">
		<stop  offset="0" style="stop-color:#80000D"/>
		<stop  offset="1" style="stop-color:#C70015"/>
	</linearGradient>
	<path style="fill:url(#SVGID_00000010291104492398560500000016159303181158957491_);" d="M226.905,312.445l-30.347-15.417
		l-36.282,25.089l-1.025-1.026c15.981-11.345,2.977-2.881,37.206-25.774l29.246,14.857c0.159-1.504,0.078-0.694,0.24-2.428
		c0.249-2.814,0.445-6.036,0.555-9.606c0.31-10.209-0.141-21.18-1.625-32.482c-3.215-22.278-9.399-44.846-22.403-63.553
		c0.839-0.579,0.407-0.254,1.285-0.991l0.389,0.545c12.74,19.834,18.833,40.668,22.197,63.806
		c1.496,11.388,1.95,22.436,1.637,32.721c-0.109,3.601-0.308,6.849-0.559,9.691c-0.088,0.997-0.177,1.872-0.261,2.619
		c-0.052,0.45-0.091,0.758-0.112,0.919L226.905,312.445z"/>
	<path style="opacity:0.25;fill:#2A2A2A;enable-background:new    ;" d="M171.635,213.984
		c-11.054-9.224-22.389-24.591-25.317-34.323c-2.928-9.731,3.66-10.143,14.716-0.919c11.054,9.224,22.389,24.591,25.316,34.323
		C189.278,222.797,182.69,223.208,171.635,213.984z"/>

		<linearGradient id="SVGID_00000051379740613817607360000014632677259793419910_" gradientUnits="userSpaceOnUse" x1="-510.7717" y1="725.746" x2="-362.8081" y2="705.798" gradientTransform="matrix(-0.959 -0.285 -0.285 0.959 57.8941 -627.1238)">
		<stop  offset="0" style="stop-color:#D50016"/>
		<stop  offset="0.342" style="stop-color:#FF001B"/>
		<stop  offset="0.536" style="stop-color:#C70015"/>
		<stop  offset="0.729" style="stop-color:#80000D"/>
	</linearGradient>
	<path style="fill:url(#SVGID_00000051379740613817607360000014632677259793419910_);" d="M313.687,223.939
		c0,0-72.314,9.856-121.393-31.829c2.705-9.439,10.018-42.441,10.536-42.901c49.625,45.463,120.635,7.669,120.635,7.669
		l-24.92,37.256L313.687,223.939z"/>
	<path style="opacity:0.4;fill:#2A2A2A;enable-background:new    ;" d="M270.787,107.519c1.125,3.125-0.481,9.052-5.998,12.751
		c-4.993,3.349-18.454,7.215-33.247,15.507c-17.623,9.878-41.821,51.841-41.821,51.841l22.712,18.604c0,0,8.072-5.824,13.162-15.011
		c11.695,0.785,25.563,1.313,36.708,0.561c24.124-1.63,31.247-11.256,32.121-18.631c0.391-3.3-5.46-15.158-11.256-31.248
		C279.791,132.517,273.576,110.814,270.787,107.519z"/>

		<linearGradient id="SVGID_00000016064721603074823760000011686761703662647728_" gradientUnits="userSpaceOnUse" x1="-432.0364" y1="757.937" x2="-432.0364" y2="675.5574" gradientTransform="matrix(-0.959 -0.285 -0.285 0.959 57.8941 -627.1238)">
		<stop  offset="0" style="stop-color:#80000D"/>
		<stop  offset="1" style="stop-color:#C70015"/>
	</linearGradient>
	<path style="fill:url(#SVGID_00000016064721603074823760000011686761703662647728_);" d="M314.817,224.532L299.4,194.185
		l25.089-36.282l-1.025-1.026c-11.346,15.982-2.882,2.978-25.775,37.206l14.858,29.246c-1.505,0.16-0.695,0.078-2.429,0.241
		c-2.814,0.249-6.036,0.445-9.607,0.554c-10.209,0.312-21.179-0.14-32.482-1.625c-22.277-3.215-44.846-9.398-63.553-22.402
		c-0.579,0.839-0.254,0.406-0.991,1.284l0.545,0.39c19.834,12.74,40.668,18.833,63.807,22.196c11.387,1.496,22.436,1.95,32.72,1.638
		c3.601-0.11,6.849-0.309,9.691-0.56c0.997-0.088,1.872-0.177,2.619-0.261c0.45-0.051,0.759-0.09,0.919-0.112L314.817,224.532z"/>
	<g>

			<linearGradient id="SVGID_00000078743064228127542000000016077872967938182026_" gradientUnits="userSpaceOnUse" x1="-50.1367" y1="36.3994" x2="71.0101" y2="36.3994" gradientTransform="matrix(-0.707 0.707 -0.707 -0.707 247.965 123.2494)">
			<stop  offset="0" style="stop-color:#580009"/>
			<stop  offset="0.135" style="stop-color:#A40011"/>
			<stop  offset="0.263" style="stop-color:#E60018"/>
			<stop  offset="0.5" style="stop-color:#BD0014"/>
		</linearGradient>
		<path style="fill:url(#SVGID_00000078743064228127542000000016077872967938182026_);" d="M242.382,46.773
			c-2.513-1.387-9.177-3.06-18.354,6.118c-6.117,6.117-15.543,18.848-24.864,36.314c-14.902,27.923-24.079,61.572-24.079,61.572
			l24.472,12.236l76.474-76.475C276.031,86.54,245.441,49.832,242.382,46.773z"/>
		<path style="fill:#FFA7A9;" d="M276.698,86.571c-3.473-4.163-1.767-2.12-5.115-6.13c-3.646-4.362-7.338-8.771-10.852-12.954
			c-4.538-5.39-9.063-10.79-13.652-16.136c-0.938-1.091-3.304-4.141-4.458-5.01c-4.67-2.576-11.351-1.39-18.941,6.201
			c-7.029,7.029-16.455,20.512-24.951,36.432c-4.381,8.21-8.528,17.39-12.416,27.223c-3.254,8.229-6.144,16.45-8.639,24.275
			c-0.874,2.739-1.635,5.233-2.28,7.434c-0.226,0.771-0.421,1.45-0.585,2.031c-0.186,0.661-0.084,0.293-0.306,1.102l25.151,12.576
			L276.698,86.571z M275.363,86.51l-75.903,75.903l-23.789-11.895l0.087-0.314c0.164-0.578,0.358-1.254,0.583-2.021
			c0.643-2.194,1.402-4.681,2.272-7.412c2.488-7.806,5.372-16.006,8.617-24.212c3.874-9.801,8.007-18.948,12.369-27.121
			c8.454-15.841,17.826-29.245,24.778-36.198c3.942-3.771,9.27-8.105,15.165-6.978c0.608,0.116,1.881,0.504,2.544,0.915
			c0.611,0.38,2.148,2.391,2.513,2.811c1.235,1.422,2.705,3.141,3.909,4.554c3.456,4.058,6.888,8.135,10.319,12.212
			c0.379,0.451,0.762,0.906,1.147,1.367c3.513,4.183,7.205,8.591,10.85,12.952c1.275,1.526,2.453,2.938,3.507,4.199L275.363,86.51z"
			/>
	</g>

		<linearGradient id="SVGID_00000078027102705311595570000009538221315726917261_" gradientUnits="userSpaceOnUse" x1="-223.1715" y1="15.6277" x2="-129.5226" y2="15.6277" gradientTransform="matrix(-0.941 0.339 -0.339 -0.941 82.2294 229.151)">
		<stop  offset="0" style="stop-color:#93000F"/>
		<stop  offset="0.111" style="stop-color:#D50016"/>
		<stop  offset="0.226" style="stop-color:#FF3B46"/>
		<stop  offset="0.361" style="stop-color:#E10017"/>
		<stop  offset="0.551" style="stop-color:#990010"/>
		<stop  offset="0.782" style="stop-color:#67000B"/>
	</linearGradient>
	<path style="fill:url(#SVGID_00000078027102705311595570000009538221315726917261_);" d="M272.895,101.789
		c1.125,3.124-0.48,9.051-5.998,12.751c-4.993,3.349-18.454,7.214-33.247,15.506c-17.623,9.878-39.244,28.258-39.244,28.258
		l9.005,24.997c0,0,36.876,4.368,61,2.739c24.125-1.63,31.248-11.256,32.122-18.631c0.39-3.298-5.461-15.158-11.257-31.248
		C281.899,126.787,275.683,105.083,272.895,101.789z"/>

		<linearGradient id="SVGID_00000115477539348292372030000014368960379351477142_" gradientUnits="userSpaceOnUse" x1="191.9305" y1="120.1487" x2="288.2056" y2="120.1487" gradientTransform="matrix(-0.213 0.977 -0.977 -0.213 369.2393 -99.8144)">
		<stop  offset="0" style="stop-color:#93000F"/>
		<stop  offset="0.111" style="stop-color:#D50016"/>
		<stop  offset="0.226" style="stop-color:#FF7780"/>
		<stop  offset="0.361" style="stop-color:#FF001B"/>
		<stop  offset="0.551" style="stop-color:#AD0012"/>
		<stop  offset="0.865" style="stop-color:#70000C"/>
	</linearGradient>
	<path style="fill:url(#SVGID_00000115477539348292372030000014368960379351477142_);" d="M170.378,56.251
		c9.827,6.207,11.793,22.402,10.951,39.34c-1.002,20.179-4.671,57.566-4.671,57.566l25.96,5.663c0,0,23.304-28.911,34.749-50.21
		c11.444-21.3,13.988-30.831,8.207-35.491c-2.587-2.085-15.737-6.894-32.446-10.539C203.393,60.456,174.651,55.64,170.378,56.251z"
		/>

		<linearGradient id="SVGID_00000079480577306915521840000016755252370197342855_" gradientUnits="userSpaceOnUse" x1="-4.3872" y1="45.774" x2="86.909" y2="15.8591" gradientTransform="matrix(-0.664 0.747 -0.747 -0.664 265.9605 103.8166)">
		<stop  offset="0.139" style="stop-color:#000000"/>
		<stop  offset="0.389" style="stop-color:#464646"/>
		<stop  offset="0.835" style="stop-color:#000000"/>
	</linearGradient>
	<path style="opacity:0.308;fill:url(#SVGID_00000079480577306915521840000016755252370197342855_);enable-background:new    ;" d="
		M200.693,158.285c15.054-19.164,29.779-38.887,40.252-60.995c1.607-3.391,3.349-7.359,4.456-10.99
		c0.992-3.253,1.919-7.198,0.619-10.534c-1.308-3.357-4.081-4.521-7.16-5.752c-1.179-0.473-2.377-0.962-3.574-1.388
		c-4.112-1.457-8.801-2.701-13.006-3.855c4.485,5.225,2.129,10.611-0.328,14.282c-2.9,4.328-8.076,10.134-13.252,16.843
		c-5.091,6.599-9.354,14.933-11.735,20.635c-3.337,7.994-9.862,22.269-16.993,37.748L200.693,158.285z"/>
	<path style="fill:#80000D;" d="M185.09,156.468l9.671-16.98l-3.35,20.406l18.593-21.365l-13.796,26.01l31.978-27.944
		l-28.247,31.522l17.9-6l-13.864,10.341l40.995-11.237l-40.538,16.72C204.331,178.04,185.09,156.468,185.09,156.468z"/>
	<path style="fill:#FFA7A9;" d="M177.322,151.421l0.109-1.139c0.223-2.327,0.467-4.923,0.727-7.723
		c0.737-8.001,1.441-16.036,2.052-23.584c0.052-0.643,0.102-1.279,0.152-1.91c0.681-8.548,1.182-15.822,1.46-21.45
		c0.298-9.195,0.505-18.76-2.5-27.598c-1.403-4.128-4.144-8.821-7.772-11.414c-1.573-0.731-0.902-0.279-2.305-0.152l1.011,0.599
		c8.556,5.404,11.576,18.494,10.582,38.517c-0.279,5.616-0.78,12.882-1.459,21.421c-0.05,0.63-0.102,1.267-0.153,1.909
		c-0.608,7.543-1.313,15.575-2.051,23.572c-0.258,2.799-0.503,5.394-0.725,7.72l-0.093,0.951l0.275,0.073L177.322,151.421z"/>

		<linearGradient id="SVGID_00000173855730260483210640000010830634410993000853_" gradientUnits="userSpaceOnUse" x1="-66.1346" y1="-23.3594" x2="22.2189" y2="4.4718" gradientTransform="matrix(-0.771 0.636 -0.636 -0.771 216.0063 152.1851)">
		<stop  offset="0.126" style="stop-color:#000000"/>
		<stop  offset="0.498" style="stop-color:#464646"/>
		<stop  offset="0.844" style="stop-color:#000000"/>
	</linearGradient>
	<path style="opacity:0.311;fill:url(#SVGID_00000173855730260483210640000010830634410993000853_);enable-background:new    ;" d="
		M282.814,155.342c2.78-3.032,5.151-6.773,5.54-10.99c-2.367-6.207-1.351-3.474-3.078-8.189
		c-3.376-9.375-9.592-31.078-12.381-34.373c1.126,3.125-0.48,9.052-5.998,12.751c-4.993,3.35-18.454,7.215-33.247,15.507
		c-10.209,5.806-19.704,12.771-28.974,19.954c-2.508,1.944-4.98,3.936-7.434,5.946c-0.926,0.758-1.985,1.506-2.837,2.357
		l8.832,24.518l0.084-0.018c18.687-4.098,37.23-8.982,55.248-15.447c5.666-2.033,9.547-3.662,14.807-6.03
		c0.627-0.282,3.403-1.585,4.304-2.132c0.956-0.582,1.873-1.226,2.809-1.838L282.814,155.342z"/>

		<linearGradient id="SVGID_00000077301564632605094920000001154373412435050627_" gradientUnits="userSpaceOnUse" x1="-54.3693" y1="6.4847" x2="71.0095" y2="6.4847" gradientTransform="matrix(-0.707 0.707 -0.707 -0.707 247.965 123.2494)">
		<stop  offset="0" style="stop-color:#93000F"/>
		<stop  offset="0.111" style="stop-color:#D50016"/>
		<stop  offset="0.226" style="stop-color:#FF7780"/>
		<stop  offset="0.361" style="stop-color:#FF001B"/>
		<stop  offset="0.573" style="stop-color:#C70015"/>
		<stop  offset="0.857" style="stop-color:#6C000B"/>
	</linearGradient>
	<path style="fill:url(#SVGID_00000077301564632605094920000001154373412435050627_);" d="M242.382,46.773
		c3.059,3.059,4.451,10.935,0,18.354c-4.029,6.714-17.751,18.734-30.589,36.707c-15.295,21.413-30.59,55.062-30.59,55.062
		l24.472,24.472c0,0,45.884-15.295,73.414-30.59c27.53-15.294,30.59-30.589,27.53-39.766c-1.367-4.104-11.675-18-27.67-33.63
		C264.995,63.747,247.495,49.11,242.382,46.773z"/>
	<path style="fill:#FFA7A9;" d="M182.964,154.283c1.424-3.011,0.627-1.337,2.398-5.017c2.923-6.018,6.12-12.309,9.489-18.565
		c2.78-5.163,5.561-10.082,8.31-14.663c3.113-5.189,6.135-9.858,9.032-13.916c6.554-9.405,14.316-17.856,22.017-26.316
		c5.009-5.495,7.203-8.104,8.595-10.424c2.609-4.563,4.382-11.927,1.455-16.769c-0.745-1.382-1.551-2.166-1.673-2.288l-0.554,0.798
		c3.401,3.402,3.818,11.261-0.074,17.751c-1.346,2.241-3.521,4.827-8.48,10.267c-5.201,5.797-10.562,11.469-15.42,17.565
		c-3.359,4.217-3.964,5.113-6.669,8.842c-2.915,4.08-5.95,8.771-9.076,13.982c-2.758,4.595-5.545,9.527-8.332,14.703
		c-3.376,6.27-6.58,12.573-9.508,18.601c-1.754,3.646-0.977,2.012-2.341,4.897L182.964,154.283z"/>
	<path style="opacity:0.25;fill:#2A2A2A;enable-background:new    ;" d="M216.355,169.465
		c-9.224-11.054-24.591-22.389-34.322-25.316c-9.732-2.928-10.143,3.66-0.92,14.715c9.225,11.054,24.592,22.389,34.323,25.317
		C225.168,187.108,225.579,180.52,216.355,169.465z"/>

		<linearGradient id="SVGID_00000165231089886423694580000007334722890497597590_" gradientUnits="userSpaceOnUse" x1="-84.8871" y1="40.314" x2="-84.5631" y2="-28.1548" gradientTransform="matrix(0.707 -0.707 -0.707 -0.707 246.5497 124.6637)">
		<stop  offset="0.011" style="stop-color:#80000D"/>
		<stop  offset="0.16" style="stop-color:#B80013"/>
		<stop  offset="0.303" style="stop-color:#E10018"/>
		<stop  offset="0.5" style="stop-color:#FF5D61"/>
		<stop  offset="0.694" style="stop-color:#E50018"/>
		<stop  offset="0.853" style="stop-color:#B60013"/>
		<stop  offset="1" style="stop-color:#80000D"/>
	</linearGradient>
	<path style="fill:url(#SVGID_00000165231089886423694580000007334722890497597590_);" d="M145.543,171.455
		c0.55-5.923,24.273-28.044,29.609-28.977c5.335-0.934,48.069,37.377,46.543,44.372c-1.314,6.024-25.949,29.884-32.781,32.781
		C182.082,222.531,144.992,177.378,145.543,171.455z"/>
</g>
</svg>
